Coordinates
version=1
nRows=9
nColumns=63
inDegrees=yes

Units are S.I. units (second, meters, Newtons, ...)
If the header above contains a line with 'inDegrees', this indicates whether rotational values are in degrees (yes) or radians (no).

endheader
time	pelvis_tilt	pelvis_list	pelvis_rotation	pelvis_tx	pelvis_ty	pelvis_tz	hip_flexion_r	hip_adduction_r	hip_rotation_r	knee_angle_r	knee_angle_r_beta	ankle_angle_r	subtalar_angle_r	mtp_angle_r	hip_flexion_l	hip_adduction_l	hip_rotation_l	knee_angle_l	knee_angle_l_beta	ankle_angle_l	subtalar_angle_l	mtp_angle_l	L5_S1_Flex_Ext	L5_S1_Lat_Bending	L5_S1_axial_rotation	L4_L5_Flex_Ext	L4_L5_Lat_Bending	L4_L5_axial_rotation	L3_L4_Flex_Ext	L3_L4_Lat_Bending	L3_L4_axial_rotation	L2_L3_Flex_Ext	L2_L3_Lat_Bending	L2_L3_axial_rotation	L1_L2_Flex_Ext	L1_L2_Lat_Bending	L1_L2_axial_rotation	L1_T12_Flex_Ext	L1_T12_Lat_Bending	L1_T12_axial_rotation	Abs_r3	Abs_r2	Abs_r1	Abs_t1	Abs_t2	neck_flexion	neck_bending	neck_rotation	arm_flex_r	arm_add_r	arm_rot_r	elbow_flex_r	pro_sup_r	wrist_flex_r	wrist_dev_r	arm_flex_l	arm_add_l	arm_rot_l	elbow_flex_l	pro_sup_l	wrist_flex_l	wrist_dev_l
      1.71428571	     -2.31070986	    -18.44932240	     85.99998334	      0.30441775	      0.93956246	      0.68838440	     12.47065907	      0.54082582	      4.60152192	      8.33058439	      0.14539613	     24.06166235	      7.99979608	      0.00000000	     11.29946021	     -2.47195121	    -11.28273702	      7.51027221	      0.13107898	     25.30060564	      6.89138562	      0.00000000	     -0.19513755	     -0.36308738	      2.17492244	     -0.36238994	     -0.48290621	      2.31085509	     -0.32059147	     -0.88281065	      2.31085509	     -0.22302270	     -0.88281065	      1.90305713	     -0.18120473	     -0.74040778	      1.76712448	     -0.11150159	     -0.56242235	      1.63119183	     -1.39384798	     -4.10731703	     12.09626612	      0.00000000	      0.00000000	      9.60322555	      2.51595184	    -13.43454025	     16.75926427	    -16.31016808	      1.72090006	     76.54048802	     87.30390871	    -14.76775833	     31.25256983	    -85.53732671	    -42.16699895	      9.27947954	    130.22597383	     89.62015193	    -27.63552746	    -24.34787115
      1.73469388	     -2.14243343	    -18.79169774	     86.71598544	      0.30293313	      0.93913528	      0.68946428	     12.79061099	      0.53865878	      3.96545417	      8.31426587	      0.14511131	     23.77778064	      7.78429731	      0.00000000	     11.75325766	     -2.49583310	    -10.72170116	      7.40422825	      0.12922816	     25.40826287	      7.12178067	      0.00000000	     -0.20705075	     -0.35491674	      2.20085224	     -0.38451396	     -0.47203927	      2.33840551	     -0.34016368	     -0.86294457	      2.33840551	     -0.23663831	     -0.86294457	      1.92574571	     -0.19226733	     -0.72374622	      1.78819245	     -0.11830880	     -0.54976603	      1.65063918	     -1.47894283	     -4.01488917	     12.24047991	      0.00000000	      0.00000000	      9.31886187	      3.14310998	    -14.68721008	     17.01093674	    -16.93619935	      1.62016843	     76.29806079	     86.63051053	    -15.10916867	     31.44810463	    -85.70324087	    -41.88000688	      8.26643727	    131.42253110	     89.60736566	    -26.97150183	    -24.40625123
      1.75510204	     -1.97168822	    -19.09865016	     87.05890406	      0.30210383	      0.93864326	      0.69064102	     13.24490130	      0.66851305	      3.58716150	      8.48770702	      0.14813843	     23.72279727	      7.58318850	      0.00000000	     12.13843232	     -2.58959415	    -10.30936052	      7.17618278	      0.12524802	     25.83740191	      7.37786866	      0.00000000	     -0.22933122	     -0.33950930	      2.24923920	     -0.42589100	     -0.45154737	      2.38981665	     -0.37676826	     -0.82548291	      2.38981665	     -0.26210265	     -0.82548291	      1.96808430	     -0.21295697	     -0.69232736	      1.82750685	     -0.13103986	     -0.52589991	      1.68692940	     -1.63808995	     -3.84059710	     12.50959367	      0.00000000	      0.00000000	      9.12162837	      3.63753880	    -15.14622525	     17.46455588	    -17.21394809	      1.54677683	     75.66311428	     86.30633449	    -15.30127266	     31.46605315	    -85.46840945	    -41.61140744	      7.47493214	    132.33958391	     89.59293384	    -26.76614357	    -24.43543530
      1.77551020	     -1.89676757	    -19.59013276	     88.15918030	      0.30063655	      0.93752100	      0.69203822	     14.02816255	      0.52810426	      1.80630196	      8.91173397	      0.15553910	     24.41808515	      8.16826847	      0.00000000	     12.95220993	     -2.45928420	     -9.82724780	      7.09076307	      0.12375716	     26.72744792	      8.30138914	      0.00000000	     -0.23197508	     -0.34600340	      2.03385490	     -0.43080092	     -0.46018453	      2.16097083	     -0.38111186	     -0.84127267	      2.16097083	     -0.26512432	     -0.84127267	      1.77962304	     -0.21541206	     -0.70557014	      1.65250711	     -0.13255056	     -0.53595927	      1.52539118	     -1.65697480	     -3.91405969	     11.31169080	      0.00000000	      0.00000000	      9.32965650	      4.41243099	    -15.23484125	     18.47234860	    -17.41834594	      3.07334892	     74.44637858	     84.36051082	    -17.10131345	     30.64103420	    -85.95422694	    -40.18276093	      5.32588890	    132.68581627	     89.53549350	    -22.15988493	    -24.40007132
      1.79591837	     -2.01526906	    -20.11169324	     88.53638384	      0.30021094	      0.93640902	      0.69348353	     15.05970414	      0.41363515	      1.15212830	      9.57487818	      0.16711315	     25.11020304	      8.05621778	      0.00000000	     13.74896260	     -2.25977964	     -9.43692539	      6.99689851	      0.12211892	     27.42643225	      8.54581541	      0.00000000	     -0.22897714	     -0.37085001	      1.96426288	     -0.42523345	     -0.49323051	      2.08702931	     -0.37618655	     -0.90168470	      2.08702931	     -0.26169798	     -0.90168470	      1.71873002	     -0.21262818	     -0.75623733	      1.59596359	     -0.13083754	     -0.57444666	      1.47319716	     -1.63556084	     -4.19512943	     10.92464087	      0.00000000	      0.00000000	      9.41044113	      5.04147155	    -15.16615998	     19.08371238	    -16.98107962	      3.29713525	     73.12610046	     83.89840590	    -17.24419393	     29.87319593	    -85.94848937	    -39.66994268	      4.43744998	    133.05561250	     89.47300299	    -22.03449416	    -24.33590615
      1.81632653	     -1.97947421	    -20.58375282	     88.85790505	      0.29961588	      0.93512483	      0.69504416	     16.18030238	      0.47193531	      0.44625833	     10.45746436	      0.18251718	     25.72187474	      7.64531721	      0.00000000	     14.51330517	     -2.19093108	     -9.10322140	      6.94215151	      0.12116340	     28.29418075	      8.57339818	      0.00000000	     -0.23941211	     -0.37162389	      1.91216963	     -0.44461224	     -0.49425977	      2.03168023	     -0.39333016	     -0.90356632	      2.03168023	     -0.27362411	     -0.90356632	      1.67314842	     -0.22231809	     -0.75781543	      1.55363782	     -0.13680008	     -0.57564540	      1.43412722	     -1.71009679	     -4.20388373	     10.63491381	      0.00000000	      0.00000000	      9.80298751	      5.54532341	    -14.73477858	     19.63678747	    -16.58019786	      3.42989790	     71.76872183	     83.47363570	    -17.35387647	     28.98499277	    -85.99433406	    -39.40229076	      3.67385540	    133.76228913	     89.38596116	    -22.15993038	    -24.26006276
      1.83673469	     -2.01890791	    -21.05229384	     89.25514684	      0.29916709	      0.93366217	      0.69646219	     17.28323401	      0.43090429	     -0.62641867	     11.26940694	      0.19668826	     26.33870089	      7.32830007	      0.00000000	     15.33912801	     -2.04450820	     -8.70762634	      7.08715622	      0.12369421	     28.98430830	      8.42449243	      0.00000000	     -0.25397402	     -0.38676763	      1.82257553	     -0.47165516	     -0.51440095	      1.93648650	     -0.41725392	     -0.94038683	      1.93648650	     -0.29026691	     -0.94038683	      1.59475359	     -0.23584028	     -0.78869656	      1.48084262	     -0.14512076	     -0.59910307	      1.36693165	     -1.81411106	     -4.37519283	     10.13661831	      0.00000000	      0.00000000	     10.37468912	      6.37103891	    -13.77594640	     20.33516005	    -16.32969641	      4.08464205	     70.07615591	     82.16963023	    -17.27189155	     27.44613314	    -86.63703676	    -39.08744498	      2.32071332	    135.07116104	     89.30834660	    -22.34394632	    -24.22141653
      1.85714286	     -1.90681089	    -21.57421105	     89.40823334	      0.29866170	      0.93182809	      0.69780180	     18.52710989	      0.60132004	     -1.31789926	     12.20558439	      0.21302763	     26.98355861	      6.55082284	      0.00000000	     16.30671221	     -2.12405818	     -8.71225092	      7.59019315	      0.13247386	     29.77675852	      8.17314390	      0.00000000	     -0.27127140	     -0.38022245	      1.91595387	     -0.50377811	     -0.50569585	      2.03570099	     -0.44567178	     -0.92447286	      2.03570099	     -0.31003608	     -0.92447286	      1.67645964	     -0.25190262	     -0.77534961	      1.55671252	     -0.15500448	     -0.58896457	      1.43696540	     -1.93766448	     -4.30115236	     10.65596064	      0.00000000	      0.00000000	     11.08012113	      6.76012361	    -13.43731126	     20.46475934	    -16.67961007	      3.93750110	     69.37691908	     81.80781266	    -17.15234682	     27.26900118	    -87.05390099	    -39.37161183	      0.97210845	    136.79165017	     89.26177017	    -22.59399694	    -24.24887682
      1.87755102	     -2.18264630	    -22.27039757	     89.25373177	      0.29891645	      0.92940375	      0.69906570	     19.99682271	      0.50111930	     -1.44879318	     13.16554494	      0.22978211	     27.84224058	      5.54624456	      0.00000000	     17.45748166	     -1.92947537	     -8.99755704	      8.22180033	      0.14349749	     30.37257831	      7.63760814	      0.00000000	     -0.27622232	     -0.43427274	      2.15381966	     -0.51297248	     -0.57758274	      2.28843339	     -0.45380566	     -1.05589074	      2.28843339	     -0.31569449	     -1.05589074	      1.88459221	     -0.25650005	     -0.88556897	      1.74997848	     -0.15783344	     -0.67268847	      1.61536475	     -1.97302844	     -4.91258008	     11.97889882	      0.00000000	      0.00000000	     11.76499544	      7.41778323	    -13.93260814	     20.08956533	    -17.10196048	      2.78486301	     69.18507966	     80.58832011	    -16.37600397	     26.97909870	    -87.82255615	    -40.11195711	     -1.15065860	    138.86883472	     89.25247227	    -22.47087222	    -24.31884957
